<svg xmlns="http://www.w3.org/2000/svg" viewBox="0 0 183.8 54" fill="currentColor">
  <path d="M168.7.1c-8.3,0-15.1,4.9-15.1,10.9s6.8,10.9,15.1,10.9,15.1-4.9,15.1-10.9c0-6.1-6.8-10.9-15.1-10.9ZM168.7,21.1c-7.7,0-14.1-4.6-14.1-10.1s6.4-10.2,14.1-10.2,14.1,4.6,14.1,10.2c0,5.5-6.3,10.1-14.1,10.1Z"/>
  <g>
    <path d="M176.7,3.5c.9.5,2.2,1.3,2.9,2.1-.3,0-.5,0-.5.7v8.9c0,.4.4.6.7.7-.7.8-1.7,1.6-2.9,2.3.5-1.3.4-2,.4-3.6v-7.3c.1-2.8-.5-3.7-.6-3.8Z"/>
    <path d="M169,15.9v-2.5c0-1.8-1.1-2.3-2-2.6,1.4-.9,2.3-2.2,2.3-3.4.1-1.1.1-2.2,0-3.3-.1-1-.4-1.5-1.2-2-.3-.2-1.1-.4-1.9-.3-1.1.2-2.3.4-3.4.9.6.5.4,1.2.4,1.8v12.8c0,.9-.1,1.5-.4,1.8,1.2.4,1.8.6,2.9.7-.6-1.4-.7-2-.7-3.3v-5.3h.7c.2,0,.8.1.8.2.4.3.3,1.4.3,2.3v2.8c.1,1.6.1,2.1,1.1,3.5.4-.1,1.6-.7,1.7-3.1-.5-.2-.6-.5-.6-1ZM166,10.4h-.7V3.9c0-.7.4-1.6,1-1.6.8,0,1,.8,1,1.6v5.2c-.1.6-.6,1.3-1.3,1.3Z"/>
    <path d="M176.1,15v-2c0-1.2-1-1.9-1.7-2.3.4-.4,1.2-.6,1.5-1.4.6-1.7.7-4.1-.1-5.6-.8-1.3-3.8-1.9-5.9-1.9.2.2.6.6.6,1.6v13.5c0,.8-.1,2.2-1,3.2,1.3,0,2.8-.4,3.8-.6-.8-.8-.9-1-.9-2.4v-5.9h.9c.7,0,1,.3,1,1v.8l.1,3.3c.1.8,1,1.7,1.7,2.2.6-.9.8-1.7.8-2.6-.6-.1-.8-.3-.8-.9ZM174.3,9.1c-.1.6-.6,1.2-1.3,1.3h-.7v-6c0-.7.3-1.7,1-1.7.8,0,1,1,1,1.7v4.7Z"/>
    <path d="M159.9,15.7c0,.5-.3,1.3-.9,1.5,1,.7,2.1,1.4,3.1,1.7-.1-.5-.2-.4-.3-4V6.2c.1-2.8.1-2.7.2-3.2-.9.3-1.8.8-2.6,1.3.4.1.5.3.2.6-1.2,1.9-2.5,3.7-3.1,6.4-.4,1.5-.2,3.6,1,4.9.4.4,1,.3,1.5-.2.4-.7.4-2.1.2-2.2-.1.1-.4.2-.7.2q-.3-.1-.6-.5c-.2-.6-.3-1.1-.3-2.3h2.2v4.5h.1ZM159.9,10.5h-2.1c.1-1.1.2-1.5.6-2.3.4-.8.7-1.3,1.5-2.6v4.9Z"/>
  </g>
  <g>
    <path d="M36.8.2L0,53.9h15.3l5.6-7.9h15.9v8h13.1V.2h-13.1ZM28.7,35l8.1-11.8v11.7l-8.1.1Z"/>
    <path d="M135.3.1v52.6l-11.7-18c6.9-3.8,9.1-9.2,9.4-17.3-.1-4.7-2-10.4-5.8-13.4C121.9,0,115.6,0,109.3,0h-15.3v52.4l-11.6-17.7c6.9-3.8,9.2-9.1,9.5-17.2-.1-4.7-2.1-10.5-5.9-13.5-5.3-4-11.6-4-17.9-4h-15.4v53.8h14.2v-16.3l11.5,16.3h29.8v-16.2l11.4,16.3h29.6V.1h-13.9ZM74.3,24c-1.8.3-3.7.3-7.6.3v-11.9c3.8,0,5.7-.1,7.4.4,1.7.5,3.2,2.7,3.4,5.8-.1,3-1.4,5.1-3.2,5.4ZM115.6,24c-1.8.3-3.7.3-7.6.3v-11.9c3.8,0,5.7-.1,7.4.4,1.7.5,3.2,2.7,3.4,5.8-.1,3-1.4,5.1-3.2,5.4Z"/>
  </g>
</svg>
