<svg xmlns="http://www.w3.org/2000/svg" viewBox="0 0 365 55" fill="currentColor">
  <path d="M19.22,38.22 C17.43,39.70 14.83,40.44 11.39,40.44 H3.08 v-16.34 h6.96 c7.90,0.00 11.85,2.74 11.85,8.21 0.00,2.47 -0.89,4.44 -2.67,5.91 zM3.08,5.47 h4.20 c7.38,0.00 11.07,2.67 11.07,8.02 0.00,5.33 -3.65,7.99 -10.95,7.99 H3.08 ZM15.94,22.20 c3.85,-2.09 5.77,-5.06 5.77,-8.93 0.00,-3.24 -1.13,-5.77 -3.39,-7.61 -2.26,-1.84 -5.58,-2.76 -9.96,-2.76 H0.00 V43.00 h11.74 c4.13,0.00 7.41,-0.96 9.83,-2.88 2.42,-1.92 3.63,-4.51 3.63,-7.76 0.00,-5.43 -3.09,-8.81 -9.27,-10.15"/>
  <path d="M29.17,2.90 V43.00 h2.85 V2.90 H29.17"/>
  <path d="m52.10,-60.19 c-2.49,2.28 -4.93,3.41 -7.34,3.41 -1.49,0.00 -2.73,-0.42 -3.73,-1.27 -0.99,-0.85 -1.49,-1.89 -1.49,-3.12 0.00,-2.20 1.19,-4.00 3.56,-5.41 2.38,-1.41 5.38,-2.05 8.99,-1.92 zm3.48,2.99 c-0.42,0.00 -0.63,-0.45 -0.63,-1.35 v-16.49 c0.00,-2.24 -0.77,-3.95 -2.33,-5.13 -1.55,-1.18 -3.52,-1.77 -5.91,-1.77 -2.70,0.00 -5.54,0.94 -8.52,2.80 v2.89 c2.89,-2.24 5.57,-3.36 8.06,-3.36 3.90,0.00 5.85,1.80 5.85,5.41 v3.36 c-4.93,0.25 -8.72,1.21 -11.38,2.86 -2.65,1.66 -3.98,3.93 -3.98,6.81 0.00,1.87 0.69,3.45 2.06,4.75 1.38,1.31 3.06,1.96 5.04,1.96 2.73,0.00 5.48,-1.09 8.25,-3.28 0.11,1.32 0.30,2.20 0.54,2.63 0.25,0.43 0.70,0.65 1.35,0.65 1.13,0.00 2.91,-0.91 5.34,-2.74 v-2.35 c-1.97,1.56 -3.22,2.33 -3.76,2.33"/>
  <path d="m73.52,-81.93 c-3.73,0.00 -6.80,1.32 -9.20,3.96 -2.40,2.64 -3.60,6.03 -3.60,10.20 0.00,3.99 1.19,7.21 3.57,9.66 2.38,2.46 5.50,3.68 9.35,3.68 2.26,0.00 4.70,-0.45 7.34,-1.35 v-2.94 c-2.48,1.03 -4.85,1.54 -7.11,1.54 -3.09,0.00 -5.56,-0.98 -7.40,-2.95 -1.84,-1.97 -2.76,-4.62 -2.76,-7.96 0.00,-3.28 0.92,-5.95 2.77,-8.00 1.85,-2.05 4.24,-3.08 7.19,-3.08 2.04,0.00 4.33,0.56 6.85,1.68 v-3.13 c-2.62,-0.87 -4.96,-1.31 -7.00,-1.31"/>
  <path d="M84.75,2.90 V43.00 h2.80 V2.90 h-2.80"/>
  <path d="M102.53,16.58 87.97,29.14 104.64,43.00 h3.86 L91.81,29.13 106.26,16.58 H102.53"/>
  <path d="M108.45,16.58 V43.00 h2.80 v-18.53 c2.24,-3.77 4.90,-5.65 7.96,-5.65 2.11,0.00 3.79,0.79 5.05,2.37 1.26,1.58 1.88,3.83 1.88,6.76 V43.00 h2.85 V24.99 c1.28,-2.16 2.52,-3.73 3.72,-4.70 1.20,-0.98 2.62,-1.47 4.24,-1.47 2.18,0.00 3.87,0.82 5.07,2.46 1.21,1.64 1.81,3.88 1.81,6.74 V43.00 h2.80 V26.78 c0.00,-3.24 -0.84,-5.83 -2.52,-7.78 -1.68,-1.95 -3.89,-2.93 -6.62,-2.93 -3.63,0.00 -6.68,2.12 -9.17,6.34 -1.65,-4.22 -4.50,-6.34 -8.54,-6.34 -3.47,0.00 -6.28,1.72 -8.42,5.17 h-0.12 v-4.65 h-2.80"/>
</svg>