<svg xmlns="http://www.w3.org/2000/svg" fill="currentColor" viewBox="-1 945 365 58"><path d="M19.218 983.222c-1.786 1.477-4.39 2.214-7.825 2.214h-8.31v-16.343h6.96q11.852 0 11.85 8.215.001 3.703-2.675 5.914M3.084 950.469H7.28q11.067 0 11.066 8.02.001 7.992-10.952 7.993h-4.31Zm12.854 16.73q5.77-3.129 5.768-8.93 0-4.852-3.387-7.608c-2.256-1.838-5.581-2.759-9.962-2.759H0V988h11.743c4.134 0 7.41-.958 9.832-2.882q3.633-2.884 3.632-7.762 0-8.144-9.269-10.155M29.166 947.902V988h2.847v-40.097zM52.096 982.812q-3.727 3.413-7.339 3.413-2.236-.001-3.729-1.267-1.488-1.271-1.486-3.117c0-2.197 1.186-3.997 3.564-5.412 2.379-1.411 5.378-2.054 8.99-1.92zm3.478 2.992q-.63 0-.63-1.35V967.97q0-3.362-2.327-5.134-2.32-1.77-5.91-1.77c-2.695 0-5.538.935-8.521 2.805v2.892q4.33-3.362 8.058-3.362 5.851 0 5.852 5.41v3.365q-7.395.377-11.376 2.864-3.98 2.495-3.982 6.81.001 2.798 2.06 4.753 2.067 1.958 5.045 1.957 4.098.002 8.253-3.277c.114 1.322.295 2.202.543 2.631q.377.645 1.354.646c1.126 0 2.91-.912 5.337-2.742v-2.346q-2.952 2.334-3.756 2.333M73.518 961.065c-3.729 0-6.797 1.318-9.195 3.955-2.398 2.64-3.6 6.035-3.6 10.196q0 5.983 3.57 9.662 3.568 3.683 9.352 3.681c2.257 0 4.703-.448 7.339-1.353v-2.94q-3.724 1.54-7.105 1.538-4.64 0-7.404-2.947-2.762-2.95-2.763-7.956 0-4.923 2.766-8.002t7.185-3.079q3.066 0 6.854 1.68v-3.127q-3.931-1.307-6.999-1.308M84.745 947.902V988h2.799v-40.097zM102.528 961.58l-14.562 12.56L104.64 988h3.861l-16.696-13.874 14.456-12.545z"/><path d="M108.45 961.58V988h2.8v-18.528q3.363-5.651 7.96-5.652c2.112 0 3.79.79 5.05 2.372 1.256 1.58 1.88 3.832 1.88 6.762V988h2.849v-18.01q1.92-3.239 3.723-4.703 1.804-1.466 4.243-1.466c2.178 0 3.872.82 5.07 2.456 1.206 1.638 1.807 3.88 1.807 6.735V988h2.802v-16.221q0-4.854-2.522-7.783c-1.677-1.955-3.885-2.93-6.615-2.93q-5.443.002-9.166 6.34c-1.649-4.224-4.497-6.34-8.54-6.34q-5.207 0-8.424 5.167h-.117v-4.651z"/></svg>