<?xml version="1.0" encoding="UTF-8" standalone="no"?>
<svg
   xmlns:dc="http://purl.org/dc/elements/1.1/"
   xmlns:cc="http://creativecommons.org/ns#"
   xmlns:rdf="http://www.w3.org/1999/02/22-rdf-syntax-ns#"
   xmlns:svg="http://www.w3.org/2000/svg"
   xmlns="http://www.w3.org/2000/svg"
   viewBox="0 0 356 139.09332"
   height="139.09332"
   width="356"
   xml:space="preserve"
   id="svg2"
   version="1.1" fill="currentColor"><metadata
     id="metadata8"><rdf:RDF><cc:Work
         rdf:about=""><dc:format>image/svg+xml</dc:format><dc:type
           rdf:resource="http://purl.org/dc/dcmitype/StillImage" /></cc:Work></rdf:RDF></metadata><defs
     id="defs6" /><g fill="currentColor"
     transform="matrix(1.3333333,0,0,-1.3333333,0,139.09333)"
     id="g10"><g fill="currentColor"
       transform="scale(0.1)"
       id="g12"><path
         id="path26"
         style="fill:currentColor;fill-rule:nonzero;stroke:none"
         d="M 144.141,448.348 C 130.746,437.27 111.207,431.742 85.4531,431.742 H 23.1289 v 122.571 h 52.1914 c 59.2697,0 88.8747,-20.54 88.8747,-61.614 0,-18.511 -6.668,-33.301 -20.054,-44.351 z M 23.1289,694 h 31.4727 c 55.3324,0 83.0004,-20.059 83.0004,-60.148 0,-39.954 -27.372,-59.954 -82.1489,-59.954 H 23.1289 Z M 119.539,568.516 c 28.852,15.66 43.258,37.964 43.258,66.976 0,24.266 -8.473,43.289 -25.399,57.071 -16.925,13.781 -41.8628,20.687 -74.7222,20.687 H 0 V 412.516 h 88.0742 c 31.0078,0 55.5818,7.187 73.7388,21.621 18.167,14.414 27.242,33.828 27.242,58.215 0,40.726 -23.172,66.105 -69.516,76.164" /><path
         id="path28"
         style="fill:currentColor;fill-rule:nonzero;stroke:none"
         d="M 218.75,713.25 V 412.516 h 21.355 V 713.25 H 218.75 v 0" /><path
         id="path30"
         style="fill:currentColor;fill-rule:nonzero;stroke:none"
         d="m 390.73,451.422 c -18.64,-17.07 -36.98,-25.598 -55.042,-25.598 -11.196,0 -20.497,3.176 -27.969,9.504 -7.449,6.348 -11.149,14.149 -11.149,23.379 0,16.477 8.895,29.973 26.735,40.586 17.84,10.586 40.332,15.41 67.425,14.402 z m 26.086,-22.442 c -3.148,0 -4.73,3.372 -4.73,10.125 v 123.641 c 0,16.813 -5.809,29.645 -17.445,38.504 -11.598,8.844 -26.387,13.277 -44.325,13.277 -20.214,0 -41.539,-7.015 -63.914,-21.035 v -21.695 c 21.649,16.812 41.801,25.215 60.438,25.215 29.25,0 43.89,-13.524 43.89,-40.578 v -25.231 c -36.98,-1.887 -65.417,-9.055 -85.32,-21.48 -19.902,-12.481 -29.867,-29.5 -29.867,-51.082 0,-13.989 5.16,-25.864 15.453,-35.649 10.336,-9.793 22.938,-14.676 37.836,-14.676 20.484,0 41.133,8.184 61.898,24.579 0.856,-9.918 2.215,-16.512 4.075,-19.735 1.883,-3.215 5.269,-4.844 10.152,-4.844 8.449,0 21.824,6.844 40.031,20.567 v 17.597 c -14.761,-11.679 -24.148,-17.5 -28.172,-17.5" /><path
         id="path32"
         style="fill:currentColor;fill-rule:nonzero;stroke:none"
         d="m 551.402,614.527 c -27.968,0 -50.98,-9.886 -68.968,-29.664 -17.985,-19.793 -26.996,-45.261 -26.996,-76.468 0,-29.915 8.914,-54.075 26.773,-72.469 17.84,-18.418 41.223,-27.61 70.141,-27.61 16.925,0 35.269,3.36 55.043,10.149 v 22.051 c -18.622,-7.7 -36.379,-11.536 -53.29,-11.536 -23.203,0 -41.71,7.372 -55.531,22.102 -13.808,14.754 -20.722,34.637 -20.722,59.676 0,24.621 6.914,44.609 20.742,60.012 13.84,15.398 31.804,23.093 53.89,23.093 15.325,0 32.473,-4.195 51.411,-12.593 v 23.445 c -19.649,6.535 -37.168,9.812 -52.493,9.812 v 0" /><path
         id="path34"
         style="fill:currentColor;fill-rule:nonzero;stroke:none"
         d="M 635.605,713.25 V 412.516 h 20.989 V 713.25 h -20.989 v 0" /><path
         id="path36"
         style="fill:currentColor;fill-rule:nonzero;stroke:none"
         d="M 768.98,610.66 659.758,516.461 784.828,412.516 h 28.957 L 688.563,516.566 796.988,610.66 H 768.98 v 0" /><path
         id="path38"
         style="fill:currentColor;fill-rule:nonzero;stroke:none"
         d="M 813.391,610.66 V 412.516 h 21.004 v 138.961 c 16.812,28.253 36.722,42.386 59.699,42.386 15.844,0 28.433,-5.925 37.875,-17.789 9.422,-11.844 14.109,-28.742 14.109,-50.719 V 412.516 h 21.363 V 547.59 c 9.594,16.195 18.903,27.969 27.926,35.277 9.023,7.328 19.623,10.996 31.823,10.996 16.33,0 29.04,-6.148 38.02,-18.418 9.05,-12.289 13.56,-29.105 13.56,-50.515 V 412.516 h 21.01 V 534.18 c 0,24.277 -6.3,43.715 -18.91,58.375 -12.58,14.66 -29.14,21.972 -49.62,21.972 -27.22,0 -50.121,-15.871 -68.746,-47.554 -12.363,31.683 -33.727,47.554 -64.051,47.554 -26.027,0 -47.098,-12.925 -63.18,-38.75 h -0.878 v 34.883 h -21.004 v 0" /><path
         id="path40"
         style="fill:currentColor;fill-rule:nonzero;stroke:none"
         d="m 1246.56,451.422 c -18.62,-17.07 -36.98,-25.598 -55.04,-25.598 -11.2,0 -20.52,3.176 -27.96,9.504 -7.46,6.348 -11.18,14.149 -11.18,23.379 0,16.477 8.93,29.973 26.77,40.586 17.84,10.586 40.32,15.41 67.41,14.402 z m 26.09,-22.442 c -3.17,0 -4.74,3.372 -4.74,10.125 v 123.641 c 0,16.813 -5.82,29.645 -17.44,38.504 -11.62,8.844 -26.38,13.277 -44.32,13.277 -20.22,0 -41.54,-7.015 -63.9,-21.035 v -21.695 c 21.63,16.812 41.78,25.215 60.42,25.215 29.27,0 43.89,-13.524 43.89,-40.578 v -25.231 c -36.96,-1.887 -65.39,-9.055 -85.32,-21.48 -19.91,-12.481 -29.87,-29.5 -29.87,-51.082 0,-13.989 5.17,-25.864 15.48,-35.649 10.32,-9.793 22.92,-14.676 37.82,-14.676 20.5,0 41.11,8.184 61.89,24.579 0.86,-9.918 2.21,-16.512 4.09,-19.735 1.87,-3.215 5.26,-4.844 10.12,-4.844 8.47,0 21.82,6.844 40.06,20.567 v 17.597 c -14.76,-11.679 -24.17,-17.5 -28.18,-17.5" /><path
         id="path42"
         style="fill:currentColor;fill-rule:nonzero;stroke:none"
         d="m 1438.72,540.52 c 0,-14.551 -5.19,-27.008 -15.6,-37.438 -10.4,-10.422 -22.83,-15.652 -37.32,-15.652 -14.63,0 -27.02,5.254 -37.21,15.75 -10.16,10.5 -15.26,23.23 -15.26,38.183 0,14.387 5.03,26.637 15.06,36.68 10.02,10.078 22.37,15.105 37,15.105 14.77,0 27.33,-5.14 37.73,-15.433 10.41,-10.281 15.6,-22.68 15.6,-37.195 z m 16.79,-173.61 c 0,-11.515 -6.03,-20.801 -18.11,-27.851 -12.08,-7.059 -28.34,-10.586 -48.79,-10.586 -45.03,0 -67.53,12.226 -67.53,36.711 0,24.492 23.87,36.714 71.63,36.714 41.87,0 62.8,-11.699 62.8,-34.988 z m 21.01,243.75 h -79.39 c -27.1,0 -47.88,-6.57 -62.36,-19.687 -14.49,-13.149 -21.74,-30.133 -21.74,-50.989 0,-14.629 4.48,-27.949 13.48,-39.949 8.97,-11.992 22.12,-20.574 39.51,-25.754 v -0.855 c -26.45,-7.629 -39.7,-18.403 -39.7,-32.309 0,-13.797 10.73,-23.222 32.17,-28.238 v -0.859 c -38.48,-6.172 -57.71,-22.18 -57.71,-48.02 0,-15.984 7.51,-28.789 22.53,-38.477 15.05,-9.707 36.37,-14.543 64.02,-14.543 27.78,0 49.48,5.122 65.1,15.403 15.58,10.273 23.39,24.355 23.39,42.297 0,15.215 -4.87,27.39 -14.59,36.597 -9.72,9.153 -28.58,14.555 -56.55,16.133 -27.96,1.582 -44.65,4.113 -49.99,7.57 -5.38,3.465 -8.06,8.055 -8.06,13.836 0,4.868 2.08,9.211 6.25,12.934 4.17,3.758 14.43,7.754 30.8,11.988 16.34,4.25 29.44,8.567 39.28,12.95 9.84,4.386 18.31,11.386 25.42,21.027 7.08,9.637 10.64,22.683 10.64,39.226 0,18.379 -9.11,35.918 -27.32,52.567 h 44.82 v 17.152" /><path
         id="path44"
         style="fill:currentColor;fill-rule:nonzero;stroke:none"
         d="m 1500.63,713.25 v -36.066 h 21.36 v 36.066 h -21.36 v 0" /><path
         id="path46"
         style="fill:currentColor;fill-rule:nonzero;stroke:none"
         d="M 1500.63,610.66 V 412.516 h 21.36 V 610.66 h -21.36 v 0" /><path
         id="path48"
         style="fill:currentColor;fill-rule:nonzero;stroke:none"
         d="m 1656.18,614.527 c -27.97,0 -50.97,-9.886 -68.98,-29.664 -17.99,-19.793 -26.99,-45.261 -26.99,-76.468 0,-29.915 8.93,-54.075 26.76,-72.469 17.84,-18.418 41.24,-27.61 70.16,-27.61 16.94,0 35.26,3.36 55.04,10.149 v 22.051 c -18.61,-7.7 -36.37,-11.536 -53.28,-11.536 -23.2,0 -41.71,7.372 -55.53,22.102 -13.83,14.754 -20.72,34.637 -20.72,59.676 0,24.621 6.91,44.609 20.74,60.012 13.83,15.398 31.8,23.093 53.89,23.093 15.33,0 32.48,-4.195 51.41,-12.593 v 23.445 c -19.65,6.535 -37.17,9.812 -52.5,9.812 v 0" /><path
         id="path50"
         style="fill:currentColor;fill-rule:nonzero;stroke:none"
         d="m 1891.26,447.035 c -17.16,-12.051 -34.91,-18.055 -53.23,-18.055 -23.61,0 -43.27,7.969 -59,23.926 -15.75,15.989 -23.62,35.989 -23.62,60.02 0,23.597 7.39,42.988 22.11,58.14 14.73,15.196 33.48,22.797 56.25,22.797 19.44,0 38.6,-6.168 57.49,-18.492 z m 0,266.215 V 598.602 c -20.75,10.625 -40.21,15.925 -58.42,15.925 -28.62,0 -52.42,-9.797 -71.39,-29.359 -18.97,-19.563 -28.44,-44.059 -28.44,-73.551 0,-29.054 9.63,-53.515 28.89,-73.437 19.25,-19.93 42.9,-29.864 70.94,-29.864 20.91,0 40.39,6.446 58.42,19.356 v -15.156 h 21.36 V 713.25 h -21.36" /><path
         id="path52"
         style="fill:currentColor;fill-rule:nonzero;stroke:none"
         d="m 1994.42,578.609 c 11.84,10.164 25.91,15.254 42.17,15.254 34.37,0 55.27,-19.394 62.76,-58.121 h -128.54 c 3.86,18.438 11.73,32.715 23.61,42.867 z m -3.38,-126.582 c -15.8,15.34 -23.69,34.114 -23.69,56.223 0,3.465 0.24,6.922 0.65,10.32 h 156.21 c 0,29.555 -8.47,52.926 -25.43,70.133 -16.93,17.207 -37.68,25.824 -62.23,25.824 -26.16,0 -47.82,-9.535 -65.04,-28.601 -17.25,-19.043 -25.85,-43.086 -25.85,-72.141 0,-30.625 9.33,-55.898 28,-75.722 18.66,-19.852 42.25,-29.747 70.82,-29.747 28.15,0 53.53,8.731 76.22,26.211 v 23.86 c -23.98,-19.621 -48.51,-29.407 -73.65,-29.407 -21.53,0 -40.21,7.665 -56.01,23.047" /><path
         id="path54"
         style="fill:currentColor;fill-rule:nonzero;stroke:none"
         d="m 2211.48,614.527 c -17.78,0 -32.89,-5.289 -45.31,-15.871 -12.44,-10.574 -18.66,-23.418 -18.66,-38.504 0,-10.644 3.34,-20.316 10.02,-29.007 6.72,-8.692 21.27,-17.497 43.74,-26.403 22.47,-8.906 36.29,-16.308 41.48,-22.14 5.14,-5.821 7.72,-12.196 7.72,-19.082 0,-10.094 -3.94,-18.368 -11.75,-24.852 -7.89,-6.465 -17.91,-9.688 -30.16,-9.688 -18.17,0 -38.96,6.028 -62.41,18.184 V 426.52 c 19.69,-12.168 39.51,-18.204 59.51,-18.204 18.4,0 33.85,5.266 46.35,15.86 12.51,10.554 18.79,23.535 18.79,38.918 0,11.492 -3.46,21.922 -10.37,31.289 -6.88,9.336 -21.55,18.394 -44,27.156 -22.38,8.754 -36.1,15.977 -41.08,21.637 -5.02,5.664 -7.49,11.84 -7.49,18.562 0,9.473 4.08,17.414 12.25,23.871 8.19,6.426 18.23,9.668 30.12,9.668 16.08,0 34.17,-6.781 54.25,-20.316 v 22.734 c -19.11,11.203 -36.75,16.832 -53,16.832 v 0" /><path
         id="path56"
         style="fill:currentColor;fill-rule:nonzero;stroke:none"
         d="m 2304.12,713.25 v -36.066 h 21.35 v 36.066 h -21.35 v 0" /><path
         id="path58"
         style="fill:currentColor;fill-rule:nonzero;stroke:none"
         d="M 2304.12,610.66 V 412.516 h 21.35 V 610.66 h -21.35 v 0" /><path
         id="path60"
         style="fill:currentColor;fill-rule:nonzero;stroke:none"
         d="m 2491.15,540.52 c 0,-14.551 -5.21,-27.008 -15.59,-37.438 -10.42,-10.422 -22.84,-15.652 -37.32,-15.652 -14.61,0 -27.02,5.254 -37.19,15.75 -10.2,10.5 -15.28,23.23 -15.28,38.183 0,14.387 5.01,26.637 15.04,36.68 10.04,10.078 22.38,15.105 37.01,15.105 14.75,0 27.32,-5.14 37.74,-15.433 10.38,-10.281 15.59,-22.68 15.59,-37.195 z m 16.81,-173.61 c 0,-11.515 -6.03,-20.801 -18.12,-27.851 -12.08,-7.059 -28.33,-10.586 -48.78,-10.586 -45.04,0 -67.57,12.226 -67.57,36.711 0,24.492 23.9,36.714 71.64,36.714 41.89,0 62.83,-11.699 62.83,-34.988 z m 21.01,243.75 h -79.41 c -27.08,0 -47.88,-6.57 -62.38,-19.687 -14.49,-13.149 -21.72,-30.133 -21.72,-50.989 0,-14.629 4.48,-27.949 13.47,-39.949 8.97,-11.992 22.17,-20.574 39.51,-25.754 v -0.855 c -26.45,-7.629 -39.67,-18.403 -39.67,-32.309 0,-13.797 10.72,-23.222 32.16,-28.238 v -0.859 c -38.49,-6.172 -57.71,-22.18 -57.71,-48.02 0,-15.984 7.51,-28.789 22.54,-38.477 15.02,-9.707 36.37,-14.543 64.01,-14.543 27.75,0 49.45,5.122 65.08,15.403 15.59,10.273 23.42,24.355 23.42,42.297 0,15.215 -4.89,27.39 -14.6,36.597 -9.74,9.153 -28.61,14.555 -56.55,16.133 -27.98,1.582 -44.64,4.113 -49.99,7.57 -5.41,3.465 -8.08,8.055 -8.08,13.836 0,4.868 2.13,9.211 6.26,12.934 4.17,3.758 14.45,7.754 30.79,11.988 16.35,4.25 29.46,8.567 39.29,12.95 9.84,4.386 18.3,11.386 25.42,21.027 7.08,9.637 10.65,22.683 10.65,39.226 0,18.379 -9.11,35.918 -27.34,52.567 h 44.85 v 17.152" /><path
         id="path62"
         style="fill:currentColor;fill-rule:nonzero;stroke:none"
         d="M 2549.56,610.66 V 412.516 h 21 v 138.961 c 16.95,28.253 38.56,42.386 64.83,42.386 35.92,0 53.86,-22.836 53.86,-68.508 V 412.516 h 21.02 V 533.32 c 0,25.403 -6.68,45.289 -20.04,59.66 -13.36,14.364 -31.21,21.547 -53.59,21.547 -26.98,0 -48.72,-12.777 -65.21,-38.324 h -0.87 v 34.457 h -21 v 0" /></g></g></svg>