<svg xmlns="http://www.w3.org/2000/svg" viewBox="-1 0 364 74" fill="currentColor">
  <path d="M19.22,53.42 C17.43,54.90 14.83,55.64 11.39,55.64 H3.08 V39.29 H10.04 C17.94,39.29 21.89,42.03 21.89,47.51 21.89,49.98 21.00,51.95 19.22,53.42 ZM3.08,20.67 H7.28 C14.66,20.67 18.35,23.34 18.35,28.69 18.35,34.02 14.70,36.68 7.39,36.68 H3.08 ZM15.94,37.40 C19.78,35.31 21.71,32.34 21.71,28.47 21.71,25.23 20.58,22.70 18.32,20.86 16.06,19.02 12.74,18.10 8.36,18.10 H0.00 V58.20 H11.74 C15.88,58.20 19.15,57.24 21.57,55.32 24.00,53.39 25.21,50.81 25.21,47.55 25.21,42.12 22.12,38.74 15.94,37.40"/>
  <path d="M29.17,18.10 V58.20 H32.01 V18.10 H29.17"/>
  <path d="M52.10,53.01 C49.61,55.29 47.17,56.42 44.76,56.42 43.26,56.42 42.02,56.00 41.03,55.16 40.03,54.31 39.54,53.27 39.54,52.04 39.54,49.84 40.73,48.04 43.11,46.63 45.48,45.22 48.48,44.57 52.10,44.71 ZM55.57,47.70 C55.15,47.70 54.94,47.25 54.94,46.35 V29.87 C54.94,27.62 54.17,25.91 52.62,24.73 51.07,23.55 49.10,22.96 46.71,22.96 44.01,22.96 41.17,23.90 38.19,25.77 V28.66 C41.07,26.42 43.76,25.30 46.24,25.30 50.14,25.30 52.10,27.10 52.10,30.71 V34.07 C47.17,34.32 43.37,35.28 40.72,36.94 38.07,38.60 36.74,40.87 36.74,43.75 36.74,45.61 37.43,47.19 38.80,48.50 40.18,49.81 41.86,50.46 43.84,50.46 46.57,50.46 49.33,49.37 52.10,47.18 52.21,48.50 52.39,49.38 52.64,49.81 52.89,50.24 53.34,50.46 53.99,50.46 55.12,50.46 56.90,49.54 59.33,47.71 V45.37 C57.36,46.93 56.11,47.70 55.57,47.70"/>
  <path d="M73.52,31.27 C69.79,31.27 66.72,32.58 64.32,35.22 61.92,37.86 60.72,41.25 60.72,45.42 60.72,49.40 61.91,52.63 64.29,55.08 66.67,57.53 69.79,58.76 73.65,58.76 75.90,58.76 78.35,58.31 80.98,57.41 V54.47 C78.50,55.49 76.13,56.00 73.88,56.00 70.79,56.00 68.32,55.02 66.47,53.06 64.63,51.09 63.71,48.44 63.71,45.10 63.71,41.82 64.63,39.15 66.48,37.10 68.32,35.05 70.72,34.02 73.66,34.02 75.71,34.02 77.99,34.58 80.52,35.70 V32.57 C77.90,31.70 75.56,31.27 73.52,31.27"/>
  <path d="M84.75,18.10 V58.20 H87.54 V18.10 H84.75"/>
  <path d="M102.53,31.78 87.97,44.34 104.64,58.20 H108.50 L91.81,44.33 106.26,31.78 H102.53"/>
  <path d="M108.45,31.78 V58.20 H111.25 V39.67 C113.49,35.90 116.15,34.02 119.21,34.02 121.32,34.02 123.00,34.81 124.26,36.39 125.52,37.97 126.14,40.22 126.14,43.15 V58.20 H128.99 V40.19 C130.27,38.03 131.51,36.46 132.71,35.49 133.92,34.51 135.33,34.02 136.96,34.02 139.13,34.02 140.83,34.84 142.02,36.48 143.23,38.11 143.83,40.36 143.83,43.21 V58.20 H146.63 V41.98 C146.63,38.74 145.79,36.15 144.11,34.19 142.44,32.24 140.23,31.27 137.50,31.27 133.87,31.27 130.81,33.38 128.33,37.61 126.68,33.38 123.83,31.27 119.79,31.27 116.32,31.27 113.51,32.99 111.37,36.43 H111.25 V31.78 H108.45"/>
  <path d="M166.20,53.01 C163.72,55.29 161.27,56.42 158.87,56.42 157.37,56.42 156.13,56.00 155.14,55.16 154.14,54.31 153.65,53.27 153.65,52.04 153.65,49.84 154.84,48.04 157.22,46.63 159.59,45.22 162.59,44.57 166.20,44.71 ZM169.68,47.70 C169.26,47.70 169.05,47.25 169.05,46.35 V29.87 C169.05,27.62 168.27,25.91 166.73,24.73 165.18,23.55 163.21,22.96 160.82,22.96 158.12,22.96 155.28,23.90 152.30,25.77 V28.66 C155.18,26.42 157.87,25.30 160.35,25.30 164.25,25.30 166.20,27.10 166.20,30.71 V34.07 C161.28,34.32 157.49,35.28 154.83,36.94 152.17,38.60 150.85,40.87 150.85,43.75 150.85,45.61 151.53,47.19 152.91,48.50 154.29,49.81 155.97,50.46 157.95,50.46 160.69,50.46 163.43,49.37 166.20,47.18 166.32,48.50 166.50,49.38 166.75,49.81 167.00,50.24 167.45,50.46 168.10,50.46 169.23,50.46 171.01,49.54 173.44,47.71 V45.37 C171.47,46.93 170.22,47.70 169.68,47.70"/>
  <path d="M191.82,41.13 C191.82,43.07 191.13,44.73 189.74,46.12 188.36,47.51 186.70,48.21 184.77,48.21 182.82,48.21 181.17,47.51 179.81,46.11 178.45,44.71 177.77,43.01 177.77,41.02 177.77,39.10 178.44,37.47 179.78,36.13 181.12,34.79 182.76,34.12 184.71,34.12 186.68,34.12 188.36,34.80 189.74,36.17 191.13,37.54 191.82,39.20 191.82,41.13 ZM194.06,64.28 C194.06,65.82 193.26,67.05 191.65,67.99 190.04,68.93 187.87,69.40 185.14,69.40 179.14,69.40 176.14,67.77 176.14,64.51 176.14,61.24 179.32,59.61 185.69,59.61 191.27,59.61 194.06,61.17 194.06,64.28 ZM196.86,31.78 H186.28 C182.67,31.78 179.90,32.66 177.96,34.41 176.03,36.16 175.07,38.42 175.07,41.20 175.07,43.15 175.66,44.93 176.86,46.53 178.06,48.13 179.81,49.27 182.13,49.96 V50.08 C178.60,51.10 176.84,52.53 176.84,54.39 176.84,56.23 178.27,57.48 181.13,58.15 V58.27 C176.00,59.09 173.43,61.22 173.43,64.67 173.43,66.80 174.43,68.51 176.44,69.80 178.44,71.09 181.29,71.74 184.97,71.74 188.68,71.74 191.57,71.05 193.65,69.68 195.73,68.31 196.77,66.44 196.77,64.04 196.77,62.02 196.12,60.39 194.83,59.16 193.53,57.94 191.02,57.22 187.29,57.01 183.56,56.80 181.33,56.47 180.62,56.00 179.90,55.54 179.55,54.93 179.55,54.16 179.55,53.51 179.82,52.93 180.38,52.43 180.94,51.93 182.30,51.40 184.49,50.84 186.66,50.27 188.41,49.69 189.72,49.11 191.04,48.53 192.16,47.59 193.11,46.31 194.06,45.02 194.53,43.28 194.53,41.08 194.53,38.63 193.32,36.29 190.89,34.07 H196.86 V31.78"/>
  <path d="M200.08,18.10 V22.91 H202.93 V18.10 H200.08"/>
  <path d="M200.08,31.78 V58.20 H202.93 V31.78 H200.08"/>
  <path d="M220.82,31.27 C217.09,31.27 214.02,32.58 211.62,35.22 209.22,37.86 208.02,41.25 208.02,45.42 208.02,49.40 209.21,52.63 211.59,55.08 213.97,57.53 217.09,58.76 220.95,58.76 223.20,58.76 225.65,58.31 228.28,57.41 V54.47 C225.80,55.49 223.43,56.00 221.18,56.00 218.09,56.00 215.62,55.02 213.78,53.06 211.93,51.09 211.01,48.44 211.01,45.10 211.01,41.82 211.93,39.15 213.78,37.10 215.62,35.05 218.02,34.02 220.96,34.02 223.01,34.02 225.29,34.58 227.82,35.70 V32.57 C225.20,31.70 222.86,31.27 220.82,31.27"/>
  <path d="M252.16,53.60 C249.87,55.20 247.51,56.00 245.06,56.00 241.92,56.00 239.30,54.94 237.20,52.81 235.10,50.68 234.05,48.02 234.05,44.81 234.05,41.67 235.03,39.08 237.00,37.06 238.96,35.03 241.46,34.02 244.50,34.02 247.09,34.02 249.64,34.84 252.16,36.49 ZM252.16,0.99 V33.39 C249.40,31.97 246.80,31.27 244.37,31.27 240.56,31.27 237.38,32.57 234.85,35.18 232.32,37.79 231.06,41.05 231.06,44.99 231.06,48.86 232.35,52.12 234.91,54.78 237.48,57.43 240.63,58.76 244.37,58.76 247.16,58.76 249.76,57.90 252.16,56.18 V58.20 H255.01 V18.10 H252.16"/>
  <path d="M265.92,36.05 C267.49,34.70 269.37,34.02 271.54,34.02 276.12,34.02 278.91,36.61 279.91,41.77 H262.77 C263.28,39.31 264.33,37.41 265.92,36.05 ZM265.47,52.93 C263.36,50.89 262.31,48.38 262.31,45.44 262.31,44.97 262.34,44.51 262.39,44.06 H283.22 C283.22,40.12 282.09,37.00 279.83,34.71 277.57,32.41 274.81,31.27 271.53,31.27 268.05,31.27 265.16,32.54 262.86,35.08 260.56,37.62 259.41,40.82 259.41,44.70 259.41,48.78 260.66,52.15 263.15,54.79 265.64,57.44 268.78,58.76 272.59,58.76 276.34,58.76 279.73,57.60 282.75,55.26 V52.08 C279.56,54.70 276.29,56.00 272.93,56.00 270.06,56.00 267.57,54.98 265.47,52.93"/>
  <path d="M294.86,31.27 C292.49,31.27 290.47,31.97 288.82,33.38 287.16,34.79 286.33,36.50 286.33,38.51 286.33,39.93 286.77,41.22 287.66,42.38 288.56,43.54 290.50,44.72 293.50,45.90 296.49,47.09 298.33,48.08 299.03,48.85 299.71,49.63 300.06,50.48 300.06,51.40 300.06,52.74 299.53,53.85 298.49,54.71 297.44,55.57 296.10,56.00 294.47,56.00 292.04,56.00 289.27,55.20 286.15,53.58 V56.33 C288.77,57.95 291.41,58.76 294.08,58.76 296.53,58.76 298.59,58.06 300.26,56.64 301.93,55.24 302.77,53.51 302.77,51.46 302.77,49.92 302.30,48.53 301.38,47.28 300.47,46.04 298.51,44.83 295.52,43.66 292.53,42.50 290.70,41.53 290.04,40.78 289.37,40.02 289.04,39.20 289.04,38.30 289.04,37.04 289.58,35.98 290.67,35.12 291.77,34.26 293.10,33.83 294.69,33.83 296.83,33.83 299.25,34.74 301.92,36.54 V33.51 C299.38,32.02 297.02,31.27 294.86,31.27"/>
  <path d="M307.21,18.10 V22.91 H310.05 V18.10 H307.21"/>
  <path d="M307.21,31.78 V58.20 H310.05 V31.78 H307.21"/>
  <path d="M332.15,41.13 C332.15,43.07 331.45,44.73 330.07,46.12 328.68,47.51 327.02,48.21 325.09,48.21 323.14,48.21 321.49,47.51 320.13,46.11 318.77,44.71 318.09,43.01 318.09,41.02 318.09,39.10 318.76,37.47 320.10,36.13 321.44,34.79 323.08,34.12 325.03,34.12 327.00,34.12 328.68,34.80 330.07,36.17 331.45,37.54 332.15,39.20 332.15,41.13 ZM334.39,64.28 C334.39,65.82 333.58,67.05 331.97,67.99 330.36,68.93 328.19,69.40 325.47,69.40 319.46,69.40 316.46,67.77 316.46,64.51 316.46,61.24 319.64,59.61 326.01,59.61 331.59,59.61 334.39,61.17 334.39,64.28 ZM337.19,31.78 H326.60 C322.99,31.78 320.22,32.66 318.28,34.41 316.35,36.16 315.39,38.42 315.39,41.20 315.39,43.15 315.98,44.93 317.18,46.53 318.38,48.13 320.14,49.27 322.45,49.96 V50.08 C318.92,51.10 317.16,52.53 317.16,54.39 317.16,56.23 318.59,57.48 321.45,58.15 V58.27 C316.32,59.09 313.75,61.22 313.75,64.67 313.75,66.80 314.76,68.51 316.76,69.80 318.76,71.09 321.61,71.74 325.29,71.74 328.99,71.74 331.89,71.05 333.97,69.68 336.05,68.31 337.09,66.44 337.09,64.04 337.09,62.02 336.44,60.39 335.15,59.16 333.85,57.94 331.33,57.22 327.61,57.01 323.88,56.80 321.66,56.47 320.94,56.00 320.22,55.54 319.87,54.93 319.87,54.16 319.87,53.51 320.15,52.93 320.70,52.43 321.26,51.93 322.63,51.40 324.81,50.84 326.99,50.27 328.73,49.69 330.04,49.11 331.36,48.53 332.48,47.59 333.43,46.31 334.38,45.02 334.85,43.28 334.85,41.08 334.85,38.63 333.64,36.29 331.21,34.07 H337.19 V31.78"/>
  <path d="M339.93,31.78 V58.20 H342.73 V39.67 C344.99,35.90 347.87,34.02 351.38,34.02 356.17,34.02 358.56,37.06 358.56,43.15 V58.20 H361.36 V42.09 C361.36,38.71 360.47,36.05 358.69,34.14 356.91,32.22 354.53,31.27 351.54,31.27 347.95,31.27 345.05,32.97 342.85,36.37 H342.73 V31.78 H339.93"/>
</svg>