<svg xmlns="http://www.w3.org/2000/svg" fill="currentColor" viewBox="0 0 365 58"><path d="M19.218 38.222c-1.786 1.477-4.39 2.214-7.825 2.214h-8.31V24.093h6.96q11.852 0 11.85 8.215.001 3.703-2.675 5.914M3.084 5.469H7.28q11.067 0 11.066 8.02.001 7.992-10.952 7.993h-4.31Zm12.854 16.73q5.77-3.129 5.768-8.93 0-4.852-3.387-7.608c-2.256-1.838-5.581-2.759-9.962-2.759H0V43h11.743c4.134 0 7.41-.958 9.832-2.882q3.633-2.884 3.632-7.762 0-8.144-9.269-10.155M29.166 2.902V43h2.847V2.903zm22.93 34.91q-3.727 3.413-7.339 3.413-2.236-.001-3.729-1.267-1.488-1.271-1.486-3.117c0-2.197 1.186-3.997 3.564-5.412 2.379-1.411 5.378-2.054 8.99-1.92zm3.478 2.992q-.63 0-.63-1.35V22.97q0-3.362-2.327-5.134-2.32-1.77-5.91-1.77-4.044 0-8.521 2.805v2.892q4.33-3.362 8.058-3.362 5.851 0 5.852 5.41v3.365q-7.395.377-11.376 2.864-3.98 2.495-3.982 6.81.001 2.798 2.06 4.753 2.067 1.958 5.045 1.957 4.098.002 8.253-3.277c.114 1.322.295 2.202.543 2.631q.377.645 1.354.646c1.126 0 2.91-.912 5.337-2.742v-2.346q-2.952 2.334-3.756 2.333m17.944-24.74c-3.729 0-6.797 1.318-9.195 3.955-2.398 2.64-3.6 6.035-3.6 10.196q0 5.983 3.57 9.662 3.568 3.683 9.352 3.681c2.257 0 4.703-.448 7.339-1.353v-2.94q-3.724 1.54-7.105 1.538-4.64 0-7.404-2.947-2.762-2.95-2.763-7.956 0-4.923 2.766-8.002t7.185-3.079q3.066 0 6.854 1.68v-3.127q-3.931-1.307-6.999-1.308M84.745 2.902V43h2.799V2.903zm17.783 13.678L87.966 29.14 104.64 43h3.861L91.805 29.126l14.456-12.545z"/><path d="M108.45 16.58V43h2.8V24.472q3.363-5.651 7.96-5.652c2.112 0 3.79.79 5.05 2.372 1.256 1.58 1.88 3.832 1.88 6.762V43h2.849V24.99q1.92-3.239 3.723-4.703 1.804-1.466 4.243-1.466c2.178 0 3.872.82 5.07 2.456 1.206 1.638 1.807 3.88 1.807 6.735V43h2.802V26.779q0-4.854-2.522-7.783c-1.677-1.955-3.885-2.93-6.615-2.93q-5.443.002-9.166 6.34c-1.649-4.224-4.497-6.34-8.54-6.34q-5.207 0-8.424 5.167h-.117v-4.651zm57.754 21.232q-3.725 3.413-7.339 3.413-2.24-.001-3.728-1.267-1.49-1.271-1.49-3.117c0-2.197 1.19-3.997 3.57-5.412 2.378-1.411 5.375-2.054 8.987-1.92zm3.478 2.992q-.632 0-.632-1.35V22.97q0-3.362-2.325-5.134c-1.55-1.179-3.517-1.77-5.909-1.77-2.696 0-5.539.935-8.52 2.805v2.892q4.326-3.362 8.056-3.362 5.853 0 5.852 5.41v3.365q-7.391.377-11.376 2.864-3.981 2.495-3.982 6.81 0 2.798 2.064 4.753 2.062 1.958 5.042 1.957c2.733 0 5.481-1.09 8.252-3.277.115 1.322.295 2.202.545 2.631q.376.645 1.35.646 1.694.001 5.34-2.742v-2.346q-2.952 2.334-3.757 2.333m22.143-14.873c0 1.94-.692 3.601-2.08 4.992q-2.08 2.086-4.976 2.087-2.924 0-4.961-2.1-2.034-2.1-2.035-5.09 0-2.881 2.008-4.891 2.005-2.015 4.933-2.014 2.953 0 5.03 2.057 2.082 2.056 2.08 4.96m2.238 23.148q0 2.303-2.414 3.713-2.416 1.412-6.506 1.412-9.004.001-9.003-4.895-.001-4.897 9.55-4.895c5.583 0 8.373 1.56 8.373 4.665m2.801-32.5H186.28q-5.418.001-8.314 2.626-2.898 2.628-2.899 6.798-.001 2.925 1.798 5.326 1.792 2.399 5.267 3.434v.114q-5.291 1.526-5.293 4.308 0 2.76 4.29 3.765v.114q-7.696 1.235-7.695 6.403c0 2.131 1.001 3.838 3.004 5.13q3.009 1.94 8.536 1.939 5.556.001 8.68-2.054c2.077-1.37 3.118-3.247 3.118-5.64 0-2.028-.65-3.651-1.945-4.879-1.296-1.22-3.81-1.94-7.54-2.15-3.728-.212-5.953-.549-6.665-1.01-.717-.462-1.075-1.074-1.075-1.845 0-.649.278-1.228.833-1.724q.833-.751 4.107-1.599 3.269-.85 5.237-1.726t3.39-2.804c.943-1.285 1.418-3.024 1.418-5.23 0-2.45-1.214-4.789-3.642-7.008h5.975zm3.216-13.679v4.81h2.848v-4.81zm0 13.678V43h2.848V16.58zm20.739-.515q-5.594 0-9.197 3.955c-2.398 2.64-3.598 6.035-3.598 10.196q0 5.983 3.568 9.662 3.569 3.683 9.354 3.681c2.259 0 4.701-.448 7.339-1.353v-2.94q-3.723 1.54-7.104 1.538-4.64 0-7.404-2.947-2.764-2.95-2.763-7.956 0-4.923 2.766-8.002t7.185-3.079q3.067 0 6.854 1.68v-3.127q-3.932-1.307-7-1.308m31.344 22.332q-3.433 2.409-7.097 2.407-4.722.001-7.867-3.19-3.15-3.197-3.15-8.002c0-3.147.986-5.732 2.949-7.752q2.946-3.04 7.5-3.04 3.887 0 7.665 2.466zm0-35.495v15.286q-4.15-2.124-7.79-2.123-5.724 0-9.518 3.915-3.793 3.91-3.792 9.806c0 3.874 1.284 7.135 3.852 9.791 2.567 2.658 5.72 3.982 9.459 3.982q4.182 0 7.789-2.58v2.02h2.848V2.902zm13.754 17.952q2.37-2.033 5.623-2.034 6.871.002 8.367 7.75h-17.138q.772-3.687 3.148-5.716m-.45 16.877c-2.107-2.045-3.16-4.548-3.16-7.496 0-.462.033-.923.087-1.376h20.828q0-5.91-3.39-9.35-3.388-3.443-8.298-3.444c-3.488 0-6.376 1.271-8.672 3.813q-3.448 3.809-3.446 9.619c0 4.083 1.244 7.453 3.733 10.096 2.488 2.647 5.633 3.966 9.443 3.966 3.753 0 7.137-1.164 10.162-3.494v-3.182q-4.794 3.923-9.82 3.921-4.306.002-7.468-3.073m29.392-21.666q-3.557 0-6.042 2.116-2.487 2.116-2.487 5.134 0 2.13 1.335 3.867c.896 1.16 2.836 2.333 5.832 3.52q4.494 1.784 5.53 2.953 1.03 1.165 1.03 2.544c0 1.346-.525 2.449-1.566 3.313-1.052.862-2.388 1.292-4.022 1.292-2.422 0-5.194-.804-8.32-2.424v2.752c2.624 1.622 5.267 2.427 7.934 2.427q3.68.002 6.18-2.114c1.667-1.408 2.505-3.138 2.505-5.19q0-2.298-1.383-4.171-1.376-1.868-5.866-3.62c-2.984-1.168-4.814-2.131-5.478-2.886-.669-.755-.998-1.578-.998-2.475q0-1.893 1.633-3.182c1.092-.857 2.43-1.29 4.016-1.29q3.217.001 7.233 2.71v-3.032c-2.548-1.493-4.9-2.244-7.066-2.244m12.351-13.163v4.81h2.847v-4.81zm0 13.678V43h2.847V16.58zm24.937 9.352c0 1.94-.695 3.601-2.079 4.992q-2.082 2.086-4.975 2.087-2.923 0-4.959-2.1-2.038-2.1-2.037-5.09 0-2.881 2.005-4.891 2.009-2.015 4.935-2.014 2.948 0 5.031 2.057 2.077 2.056 2.079 4.96m2.241 23.148q.001 2.303-2.416 3.713-2.415 1.412-6.503 1.412-9.01.001-9.01-4.895c0-3.266 3.187-4.895 9.552-4.895 5.585 0 8.377 1.56 8.377 4.665m2.802-32.5H326.6q-5.416.001-8.317 2.626-2.897 2.628-2.896 6.798-.001 2.925 1.796 5.326c1.196 1.6 2.956 2.743 5.268 3.434v.114q-5.29 1.526-5.29 4.308 0 2.76 4.288 3.765v.114c-5.132.823-7.694 2.958-7.694 6.403 0 2.131 1.001 3.838 3.005 5.13q3.006 1.94 8.535 1.939 5.55.001 8.677-2.054c2.078-1.37 3.122-3.247 3.122-5.64 0-2.028-.652-3.651-1.946-4.879-1.299-1.22-3.815-1.94-7.54-2.15q-5.595-.318-6.665-1.01c-.722-.462-1.078-1.074-1.078-1.845 0-.649.284-1.228.835-1.724.556-.501 1.927-1.034 4.105-1.599q3.271-.85 5.239-1.726t3.389-2.804c.944-1.285 1.42-3.024 1.42-5.23 0-2.45-1.215-4.789-3.645-7.008h5.98zm2.745-.001V43h2.8V24.472q3.39-5.651 8.644-5.652 7.182 0 7.18 9.134V43h2.803V26.893q0-5.08-2.672-7.954-2.669-2.873-7.145-2.873-5.396 0-8.694 5.11h-.116v-4.594z"/></svg>