<svg xmlns="http://www.w3.org/2000/svg" viewBox="-2 948 365 55" fill="currentColor"><g transform="matrix(1.3333,0,0,-1.3333,0,1043)"><g transform="scale(0.1)"><path d="M144.141,448.348C130.746,437.27,111.207,431.742,85.4531,431.742H23.1289v122.571h52.1914c59.2697,0,88.8747-20.54,88.8747-61.614,0-18.511-6.668-33.301-20.054-44.351zM23.1289,694h31.4727c55.3324,0,83.0004-20.059,83.0004-60.148,0-39.954-27.372-59.954-82.1489-59.954H23.1289ZM119.539,568.516c28.852,15.66,43.258,37.964,43.258,66.976,0,24.266-8.473,43.289-25.399,57.071-16.925,13.781-41.8628,20.687-74.7222,20.687H0V412.516h88.0742c31.0078,0,55.5818,7.187,73.7388,21.621,18.167,14.414,27.242,33.828,27.242,58.215,0,40.726-23.172,66.105-69.516,76.164"/><path d="M218.75,713.25V412.516h21.355V713.25H218.75"/><path d="m390.73,451.422c-18.64-17.07-36.98-25.598-55.042-25.598-11.196,0-20.497,3.176-27.969,9.504-7.449,6.348-11.149,14.149-11.149,23.379,0,16.477,8.895,29.973,26.735,40.586,17.84,10.586,40.332,15.41,67.425,14.402zm26.086-22.442c-3.148,0-4.73,3.372-4.73,10.125v123.641c0,16.813-5.809,29.645-17.445,38.504-11.598,8.844-26.387,13.277-44.325,13.277-20.214,0-41.539-7.015-63.914-21.035v-21.695c21.649,16.812,41.801,25.215,60.438,25.215,29.25,0,43.89-13.524,43.89-40.578v-25.231c-36.98-1.887-65.417-9.055-85.32-21.48-19.902-12.481-29.867-29.5-29.867-51.082,0-13.989,5.16-25.864,15.453-35.649,10.336-9.793,22.938-14.676,37.836-14.676,20.484,0,41.133,8.184,61.898,24.579.856-9.918,2.215-16.512,4.075-19.735,1.883-3.215,5.269-4.844,10.152-4.844,8.449,0,21.824,6.844,40.031,20.567v17.597c-14.761-11.679-24.148-17.5-28.172-17.5"/><path d="m551.402,614.527c-27.968,0-50.98-9.886-68.968-29.664-17.985-19.793-26.996-45.261-26.996-76.468,0-29.915,8.914-54.075,26.773-72.469,17.84-18.418,41.223-27.61,70.141-27.61,16.925,0,35.269,3.36,55.043,10.149v22.051c-18.622-7.7-36.379-11.536-53.29-11.536-23.203,0-41.71,7.372-55.531,22.102-13.808,14.754-20.722,34.637-20.722,59.676,0,24.621,6.914,44.609,20.742,60.012,13.84,15.398,31.804,23.093,53.89,23.093,15.325,0,32.473-4.195,51.411-12.593v23.445c-19.649,6.535-37.168,9.812-52.493,9.812"/><path d="M635.605,713.25V412.516h20.989V713.25h-20.989"/><path d="M768.98,610.66,659.758,516.461,784.828,412.516h28.957L688.563,516.566,796.988,610.66H768.98"/><path d="M813.391,610.66V412.516h21.004v138.961c16.812,28.253,36.722,42.386,59.699,42.386,15.844,0,28.433-5.925,37.875-17.789,9.422-11.844,14.109-28.742,14.109-50.719V412.516h21.363V547.59c9.594,16.195,18.903,27.969,27.926,35.277,9.023,7.328,19.623,10.996,31.823,10.996,16.33,0,29.04-6.148,38.02-18.418,9.05-12.289,13.56-29.105,13.56-50.515V412.516h21.01V534.18c0,24.277-6.3,43.715-18.91,58.375-12.58,14.66-29.14,21.972-49.62,21.972-27.22,0-50.121-15.871-68.746-47.554-12.363,31.683-33.727,47.554-64.051,47.554-26.027,0-47.098-12.925-63.18-38.75h-.878v34.883h-21.004"/></g></g></svg>