<svg xmlns="http://www.w3.org/2000/svg" viewBox="0 0 2500 2500" fill="currentColor">
  <path d="M1885.69,1240.67c-16.74-42.8-57.22-75.82-100.49-86.52-118.61-31.63-268.86-19.07-350.74,80.01-47.44,60.93-75.34,152.58-40,229.8,17.22,45.12,65.12,77.68,110.24,86.05,99.56,13.02,227.93,18.61,307.95-54.42,74.87-62.33,100.01-166.53,73.03-254.92h0ZM1640.09,1423.95c-11.17,4.18-29.31,6.04-39.54-1.87-23.73-13.03-15.84-42.33-13.05-61.88,11.17-36.29,23.73-87.46,68.86-94.43,14.82-1.44,33.49,5.12,39.54,22.33,4.18,52.57-10.92,106.03-55.81,135.85h0ZM560.98,942.23l-83.73,242.86-63.66-242.86h-169.15L36.76,1535.11h197.63l78.73-226.09,58.62,226.09h179.2l207.67-592.89h-197.63ZM888.7,1119.11c34.89-5.12,71.63-16.28,90.71-50.71,13.96-27.44,8.85-60.48-7.9-84.65-26.98-28.38-64.2-31.17-103.73-28.84-36.29,5.12-73.03,23.25-86.05,60.93-6.04,23.72-4.66,52.57,11.17,71.63,23.24,28.39,60.93,32.57,95.81,31.65ZM744.74,1158.82l-132.3,376.84h187.58l132.3-376.84h-187.58Z"/>
  <path d="M1470.24,1158.29h-217.72l-108.87,127.27,118.91-343.34h-190.93l-207.67,592.89h190.93l53.59-149.05,30.15,149.05h199.31l-33.51-180.88,165.82-195.95h0ZM2327.57,1153.79c-83.72,0-139,36.85-167.47,61.97l21.76-56.95h-197.62l-132.33,376.84h197.63l63.66-180.88c10.03-28.47,26.77-41.88,55.25-41.88s35.19,28.47,26.8,51.92l-60.28,170.84h190.93l85.42-244.53c23.46-66.99,0-137.32-83.75-137.32h0Z"/>
</svg>
