<svg xmlns="http://www.w3.org/2000/svg" viewBox="0 0 1280 225.28" fill="currentColor">
  <path d="m 456.01,225.28 c -46.41,0 -89.42,-13.82 -118.09,-39.6 A 96.9,96.9 0 0 1 305.79,112.49 98.33,98.33 0 0 1 337.92,39.55 C 364.54,15.36 411.65,0 456.01,0 c 49.08,0 88.37,12.36 118.4,39.6 a 97.41,97.41 0 0 1 31.69,72.88 101.53,101.53 0 0 1 -31.69,73.19 c -27.98,25.93 -71.91,39.6 -118.4,39.6 v -29.64 c 24.6,0 47.44,-8.5 63.39,-24.37 15.95,-15.87 23.19,-35.12 23.19,-58.88 0,-22.68 -7.96,-43.88 -23.19,-58.88 -15.74,-15.49 -39.12,-24.22 -63.39,-24.22 -24.27,0 -47.74,8.65 -63.49,24.22 -15.18,15.03 -23.04,36.3 -23.04,58.88 a 82.36,82.36 0 0 0 23.04,58.88 c 15.74,15.69 39.07,24.37 63.49,24.37 z M 117.12,0 C 92.31,0 64.13,4.66 40.32,15.36 18.1,25.29 0,41.24 0,67.69 A 54.22,54.22 0 0 0 14.72,104.96 c 6.43,5.94 16.79,16.03 43.88,21.96 12.11,2.56 37.99,6.68 63.77,9.4 25.78,2.71 50.76,5.12 61,7.86 8.14,2.07 21.84,4.89 21.84,20.25 0,15.36 -14.41,19.97 -16.92,20.97 -2.51,1 -19.81,8.93 -50.89,8.93 a 216.42,216.42 0 0 1 -60.6,-10.42 c -11.6,-4.15 -23.76,-9.6 -35.1,-23.45 a 40.27,40.27 0 0 1 -7.3,-22.22 H 6.25 v 78.85 H 37.53 v -10.68 a 4.45,4.45 0 0 1 6.76,-3.84 246.43,246.43 0 0 0 45.77,14.8 c 16.44,3.43 27.06,5.91 47.49,5.91 a 202.62,202.62 0 0 0 63.64,-8.99 111.08,111.08 0 0 0 37.81,-18.66 51.81,51.81 0 0 0 20.25,-41.5 58.06,58.06 0 0 0 -16.36,-40.81 72.01,72.01 0 0 0 -20.17,-13.8 148.61,148.61 0 0 0 -24.88,-8.68 c -16.23,-3.97 -52.68,-8.93 -70.12,-10.68 -18.28,-1.89 -50,-4.53 -62.67,-8.45 -3.84,-1.2 -11.67,-4.92 -11.67,-14 0,-6.48 3.58,-11.96 10.65,-16.38 C 75.26,34.3 97.95,29.93 121.6,29.93 a 166.99,166.99 0 0 1 66.71,13.03 72.86,72.86 0 0 1 15.87,9.47 47.72,47.72 0 0 1 15.64,26.16 h 25.27 V 9.96 h -28.16 v 7.96 c 0,2.56 -2.56,5.94 -7.68,3.15 C 196.56,14.46 160.87,0.18 117.12,0 Z m 618.21,12.6 137.63,124.19 -1.41,-83.61 c -0.15,-10.98 -2.15,-15.56 -14.03,-15.56 H 831.67 V 12.6 h 117.76 v 25.01 h -25.27 c -12.08,0 -12.8,3.89 -13,15.56 l 2.12,159.77 h -40.32 L 714.42,71.48 V 171.85 c 0.13,10.93 0.64,16.08 11.88,16.08 h 28.16 v 25.01 H 639.03 v -25.01 h 27.03 c 10.09,0 9.68,-9.63 9.68,-16.64 V 54.12 c 0,-7.68 -1.08,-16.49 -16.9,-16.49 h -21.91 V 12.6 Z M 1083.78,187.88 a 55.86,55.86 0 0 0 6.96,-0.44 8.63,8.63 0 0 0 5.43,-4.81 28.01,28.01 0 0 0 0.54,-5.4 v -39.55 c 0,-1.33 0,-1.36 -1.69,-3.46 -1.69,-2.1 -72.09,-81.92 -75.29,-85.5 -3.99,-4.35 -11.01,-11.08 -21.68,-11.08 h -24.45 V 12.6 h 137.98 v 24.99 h -16.64 c -3.84,0 -6.4,3.66 -3.12,7.68 0,0 46.44,55.55 46.87,56.14 0.44,0.59 0.82,0.72 1.41,0.18 0.59,-0.54 47.59,-55.81 47.95,-56.32 a 4.79,4.79 0 0 0 -4.1,-7.68 h -17.08 V 12.6 H 1280 v 25.04 h -25.27 c -9.16,0 -12.8,1.69 -19.79,9.47 l -76.16,86.89 a 5.38,5.38 0 0 0 -0.92,3.69 v 39.53 a 28.16,28.16 0 0 0 0.56,5.4 8.52,8.52 0 0 0 5.4,4.81 50.61,50.61 0 0 0 6.91,0.44 h 25.83 v 25.04 h -137.27 v -25.04 z"/>
</svg>
